<?xml version="1.0" encoding="UTF-8" standalone="no"?>
<svg
   xmlns:dc="http://purl.org/dc/elements/1.1/"
   xmlns:cc="http://creativecommons.org/ns#"
   xmlns:rdf="http://www.w3.org/1999/02/22-rdf-syntax-ns#"
   xmlns:svg="http://www.w3.org/2000/svg"
   xmlns="http://www.w3.org/2000/svg"
   xmlns:sodipodi="http://sodipodi.sourceforge.net/DTD/sodipodi-0.dtd"
   xmlns:inkscape="http://www.inkscape.org/namespaces/inkscape"
   inkscape:version="1.0 (4035a4fb49, 2020-05-01)"
   sodipodi:docname="meliamarelo.svg"
   id="svg879"
   viewBox="0 0 75 54"
   version="1.1"
   height="54mm"
   width="75mm">
  <defs
     id="defs883" />
  <sodipodi:namedview
     inkscape:current-layer="g875"
     inkscape:window-maximized="1"
     inkscape:window-y="-8"
     inkscape:window-x="1912"
     inkscape:cy="126.76702"
     inkscape:cx="147.80794"
     inkscape:zoom="2.9469416"
     showgrid="false"
     id="namedview881"
     inkscape:window-height="1017"
     inkscape:window-width="1920"
     inkscape:pageshadow="2"
     inkscape:pageopacity="0"
     guidetolerance="10"
     gridtolerance="10"
     objecttolerance="10"
     borderopacity="1"
     bordercolor="#666666"
     pagecolor="#ffffff" />
  <metadata
     id="metadata859">
    <rdf:RDF>
      <cc:Work
         rdf:about="">
        <dc:format>image/svg+xml</dc:format>
        <dc:type
           rdf:resource="http://purl.org/dc/dcmitype/StillImage" />
        <dc:title></dc:title>
      </cc:Work>
    </rdf:RDF>
  </metadata>
  <g
     id="g877"
     fill-rule="evenodd"
     transform="matrix(0.26458,0,0,0.26458,-18.149,-29.63)">
    <path
       id="path861"
       fill="#001551"
       d="m 114.43397,134.87802 c -8.5688,1.2229 -6.7772,6.9542 -3.7305,12.02 -17.299005,12.775 -32.473005,24.886 -39.128005,48.237 -6.8822,24.147 -0.4931,49.984 13.396,69.243 49.010005,67.957 203.200005,66.827 251.450005,-0.2034 12.521,-17.393 20.368,-43.525 12.947,-69.696 -4.1211,-14.532 -16.5,-30.812 -26.982,-38.737 -3.6158,-2.7337 -8.961,-7.6031 -13.348,-9.2582 2.7153,-8.7076 2.708,-8.3852 -4.661,-11.866 4.1091,-9.1586 -5.116,-12.456 -10.681,-16.523 -1.7653,-1.29 -3.6029,-2.8291 -5.8683,-4.0298 -6.7886,-3.5983 -9.6611,-0.3462 -13.269,2.8498 -3.3048,2.9279 -7.0663,6.4318 -9.8817,9.7787 l -26.013,-4.8277 c -33.589,-4.2224 -52.029,-0.9694 -83.707,5.4366 -3.459,-2.8082 -6.3763,-6.552 -10.007,-9.6313 -9.6744,-8.2038 -9.53,-6.6462 -24.962,3.6624 -7.3581,4.9156 -7.2393,8.2314 -5.5576,13.545 z" />
    <path
       id="path863"
       fill="#fdfefd"
       d="m 329.06397,254.26802 c 10.007,-12.033 16.242,-23.095 17.373,-39.405 0.0419,-0.6049 0.0642,-0.9729 -0.0196,-1.5368 -1.0159,-6.8339 -45.623,0.7958 -51.89,2.3544 -7.7611,1.9305 -15.204,3.9125 -22.431,6.5338 -3.7986,1.3778 -6.9538,2.4315 -10.562,3.8765 -3.6876,1.4765 -7.3004,3.3657 -10.708,4.4904 4.1546,-13.892 4.9144,-14.672 4.9403,-31.584 0.0211,-13.648 -1.2077,-19.739 3.0718,-32.733 7.4229,-22.538 7.8524,-11.397 20.608,-15.583 7.3044,-2.3974 8.0125,-4.4297 20.576,-6.3561 3.4845,-0.5342 5.0933,-0.5818 5.587,-3.8013 -3.2728,-1.8658 -8.3588,0.4168 -11.439,1.927 -5.4334,2.6641 -5.5227,-0.4194 -11.097,-0.7463 -3.9194,2.8668 -5.4294,7.6673 -11.916,6.6878 1.5162,-2.6723 5.7928,-6.6826 7.836,-8.6742 7.0342,-6.8565 2.9161,-4.8845 2.0503,-10.908 2.1782,0.5951 3.6389,2.5653 5.2536,3.6091 1.8599,-2.1391 1.1952,-2.0637 2.6894,-4.9386 l 0.9098,3.7065 c 0.9416,2.633 -0.5345,0.682 2.3727,2.1097 l -2.9595,2.8733 c -1.1957,-1.7235 -1.1867,-1.5605 -3.4702,-1.3769 l -1.632,3.0283 c 7.2976,5.6139 15.121,-2.4843 16.414,-7.8671 -4.1723,-4.4211 -7.2884,-5.8112 -12.415,-9.6699 -9.7147,-7.3113 -9.5928,2.3863 -24.721,15.11 -17.546,14.758 -30.086,53.766 -39.836,74.459 -21.509,45.647 -8.807,42.573 25.28,45.024 37.459,2.6935 68.906,-5.7613 72.856,-5.2846 3.9879,0.4813 6.1125,3.3805 7.2786,4.6757 z" />
    <path
       id="path865"
       fill="#fdfefd"
       d="m 118.21397,130.67802 c 0.7806,1.5504 1.3588,2.4576 2.7214,3.8071 2.0938,2.0736 6.4269,8.8066 13.538,3.4201 -0.7913,-2.8987 -2.1768,-4.9979 -4.9931,-1.9399 -0.1421,-0.1123 -0.3311,-0.4971 -0.3937,-0.3742 l -2.6829,-2.2851 2.5122,-0.8898 0.3588,-5.2214 1.521,2.6757 c 1.0359,1.9989 -0.1078,0.7086 1.6252,2.3505 1.5571,-0.536 3.0612,-2.6729 5.4171,-3.3955 -0.4494,2.3963 -2.1131,2.9319 -1.844,5.7067 0.409,4.2185 10.854,10.445 11.635,13.78 -6.0455,1.3018 -7.2929,-3.884 -11.725,-6.5414 -5.5585,0.0317 -5.7036,3.4296 -11.04,0.666 -2.3541,-1.2191 -5.1436,-2.3371 -8.0803,-2.5161 -2.7145,-0.1654 -1.4333,-0.5466 -3.4237,0.531 -0.4922,2.8097 1.3495,3.125 4.4537,3.7203 14.196,2.7213 8.2722,1.8301 21.194,6.3682 13.574,4.7675 13.416,-7.3082 21.026,15.831 5.8804,17.88 1.3725,30.54 3.9946,49.758 0.9016,6.6064 2.5008,9.1435 3.9819,14.467 l -20.078,-8.1395 c -6.8089,-2.5046 -14.2,-4.5308 -21.774,-6.4733 -10.372,-2.6604 -41.330005,-7.3672 -50.677005,-3.2333 -2.5107,6.125 1.6508,17.198 4.2246,22.757 5.2873,11.42 7.9069,12.196 10.676,17.444 7.6493,-4.084 4.9735,-4.5365 17.548005,-1.7471 18.98,4.2101 44.165,4.8881 63.366,3.5976 13.488,-0.9064 32.429,0.2799 34.251,-11.146 1.6179,-10.144 -7.3108,-26.375 -10.794,-34.533 -11.846,-27.742 -20.066,-53.818 -39.136,-73.853 l -17.288,-16.936 c -3.0474,-1.9139 -5.4238,0.2306 -7.5855,1.9293 -4.1596,3.269 -10.616,5.7603 -12.529,10.415 z" />
    <g
       id="g875"
       fill="#ff00ff">
      <path
         style="fill:#fff159;fill-opacity:1"
         id="path867"
         d="m 94.684965,256.81802 c 1.275,3.235 15.881005,14.202 21.139005,17.449 7.5375,4.6552 16.746,8.9801 26.207,12.565 40.86,15.481 92.894,15.446 134.01,1.0549 13.144,-4.6005 40.982,-18.299 48.914,-29.034 -1.6471,-7.5882 -9.4994,-2.7725 -26.015,-0.6462 -25.237,3.2489 -39.752,2.9169 -65.131,0.6068 -13.088,-1.1914 -17.588,-0.8359 -24.314,-9.661 l -3.6817,3.9911 c -5.5246,5.0469 -12.18,4.9292 -19.964,5.6049 -27.224,2.3633 -50.906,2.8081 -77.8,-2.347 -5.4633,-1.0472 -10.263005,-3.7401 -13.362005,0.4166 z" />
      <path
         style="fill:#fff159;fill-opacity:1"
         id="path869"
         d="m 159.62397,131.98802 c 6.338,7.9999 9.291,9.2488 15.665,21.056 4.3253,8.0124 8.0562,16.926 11.981,25.493 l 16.661,38.519 c 1.5258,3.3504 4.4276,12.026 5.7709,13.681 4.4215,-12.871 27.464,-65.879 33.872,-77.818 6.6388,-12.368 11.298,-14.654 16.164,-21.905 -17.575,-3.0352 -30.997,-5.8112 -50.243,-5.7215 -10.369,0.0483 -42.509,2.3535 -49.872,6.6953 z" />
      <path
         style="fill:#fff159;fill-opacity:1"
         id="path871"
         d="m 267.64397,156.55802 c -2.7789,9.9112 -7.1706,16.837 -7.2525,29.298 -0.0402,6.1327 0.5684,12.088 0.371,18.399 -0.1868,5.968 -1.1273,11.375 -1.4961,17.054 12.33,-3.0608 20.312,-7.7341 40.14,-11.908 16.828,-3.5422 29.092,-4.0829 46.639,-2.7479 0.7917,-7.5771 -5.6527,-21.042 -8.8672,-26.265 -5.3824,-8.7453 -10.427,-13.357 -16.682,-19.469 -1.1908,-1.1638 -3.0636,-2.6934 -4.6332,-3.9047 -1.7313,-1.3361 -3.452,-2.6248 -5.3851,-3.819 -5.6706,-3.5024 -5.0981,-5.0351 -13.458,-3.3467 -13.12,2.6498 -13.619,7.4481 -29.376,6.7091 z" />
      <path
         style="fill:#fff159;fill-opacity:1"
         id="path873"
         d="m 75.053965,207.21802 c 20.277,-0.8386 23.966,-2.0768 45.712005,2.2676 18.987,3.7931 24.184,7.4691 38.744,11.712 -0.6777,-7.82 -1.7964,-15.673 -1.5316,-23.512 0.009,-9.0225 1.2122,-14.137 -0.9101,-23.102 -1.1694,-4.9396 -4.1334,-15.216 -6.6059,-18.097 -12.008,1.3754 -17.095,-3.6937 -28.012,-6.4828 -2.2747,-0.5812 -4.9597,-0.979 -6.7953,-0.1672 -1.0371,0.4587 -4.6788,2.9407 -5.6102,3.6033 -9.1586,6.5146 -20.633005,17.223 -26.247005,26.951 -3.9723,6.8828 -9.013,17.565 -8.7441,26.827 z" />
    </g>
  </g>
</svg>
