<?xml version="1.0" encoding="UTF-8" standalone="no"?>
<!DOCTYPE svg PUBLIC "-//W3C//DTD SVG 1.1//EN" "http://www.w3.org/Graphics/SVG/1.1/DTD/svg11.dtd">
<svg version="1.1" xmlns="http://www.w3.org/2000/svg" xmlns:xlink="http://www.w3.org/1999/xlink" preserveAspectRatio="xMidYMid meet" viewBox="0 0 280 200" width="280" height="200"><defs><path d="M41.4 34.05C24.32 46.67 9.33 58.64 2.75 81.7C-4.05 105.55 2.27 131.07 15.98 150.1C64.4 217.22 216.7 216.11 264.37 149.9C276.73 132.72 284.49 106.9 277.15 81.05C273.08 66.7 260.86 50.62 250.5 42.79C246.93 40.09 241.65 35.28 237.32 33.64C240 25.04 239.99 25.36 232.71 21.92C236.77 12.88 227.66 9.62 222.16 5.6C220.42 4.33 218.6 2.81 216.37 1.62C209.66 -1.93 206.82 1.28 203.26 4.44C200 7.33 196.28 10.79 193.5 14.1C190.93 13.62 170.37 9.8 167.8 9.33C134.63 5.16 116.41 8.37 85.12 14.7C81.7 11.92 78.82 8.23 75.23 5.18C65.68 -2.92 65.82 -1.38 50.58 8.8C43.31 13.66 43.43 16.93 45.09 22.18C36.62 23.39 38.39 29.05 41.4 34.05Z" id="f1KMlTfzny"></path><path d="M274.26 101.2C274.3 100.6 274.32 100.23 274.24 99.68C273.24 92.93 229.17 100.46 222.98 102C215.32 103.91 207.97 105.87 200.83 108.46C197.08 109.82 193.96 110.86 190.39 112.29C186.75 113.74 183.18 115.61 179.82 116.72C183.92 103 184.67 102.23 184.7 85.52C184.72 72.04 183.5 66.03 187.73 53.19C195.06 30.93 195.49 41.93 208.09 37.8C215.3 35.43 216 33.42 228.41 31.52C231.85 30.99 233.44 30.94 233.93 27.76C230.7 25.92 225.67 28.18 222.63 29.67C217.26 32.3 217.18 29.25 211.67 28.93C207.8 31.76 206.31 36.5 199.9 35.54C201.4 32.9 205.62 28.94 207.64 26.97C214.59 20.2 210.52 22.14 209.66 16.19C211.82 16.78 213.26 18.73 214.85 19.76C216.69 17.65 216.03 17.72 217.51 14.88C217.6 15.25 218.32 18.18 218.41 18.54C219.34 21.14 217.88 19.22 220.75 20.63C220.46 20.91 218.12 23.18 217.83 23.46C216.65 21.76 216.66 21.92 214.4 22.1C214.24 22.4 212.95 24.8 212.79 25.1C220 30.64 227.73 22.64 229 17.32C224.88 12.96 221.8 11.58 216.74 7.77C207.14 0.55 207.26 10.13 192.32 22.7C174.99 37.27 162.6 75.81 152.97 96.25C131.73 141.34 144.27 138.3 177.94 140.72C214.94 143.38 246.01 135.03 249.91 135.5C253.85 135.97 255.95 138.84 257.1 140.12C266.98 128.23 273.14 117.31 274.26 101.2Z" id="a3xjKibEVG"></path><path d="M51.51 21.79C53.58 23.84 57.86 30.49 64.89 25.17C64.1 22.31 62.74 20.23 59.95 23.25C59.81 23.14 59.63 22.76 59.56 22.88C59.39 22.73 58.5 21.98 56.91 20.63L59.4 19.75L59.75 14.59C60.65 16.18 61.15 17.06 61.25 17.23C62.28 19.21 61.15 17.93 62.86 19.55C64.4 19.02 65.88 16.91 68.21 16.2C67.77 18.57 66.12 19.1 66.39 21.84C66.79 26 77.11 32.15 77.88 35.45C71.91 36.73 70.68 31.61 66.3 28.99C60.81 29.02 60.67 32.38 55.39 29.65C53.07 28.44 50.31 27.34 47.41 27.16C44.73 27 46 26.62 44.03 27.68C43.54 30.46 45.36 30.77 48.43 31.36C62.45 34.05 56.6 33.17 69.36 37.65C82.77 42.36 82.62 30.43 90.13 53.29C95.94 70.95 91.49 83.45 94.08 102.44C94.97 108.96 96.55 111.47 98.01 116.73C96.03 115.92 80.16 109.49 78.18 108.69C71.45 106.21 64.15 104.21 56.67 102.29C46.43 99.66 15.85 95.02 6.61 99.1C4.13 105.15 8.24 116.09 10.79 121.58C16.01 132.86 18.6 133.62 21.33 138.81C28.89 134.77 26.25 134.33 38.67 137.08C57.41 141.24 82.29 141.91 101.26 140.64C114.58 139.74 133.29 140.91 135.09 129.63C136.69 119.61 127.87 103.57 124.43 95.52C112.73 68.11 104.61 42.36 85.77 22.57C84.06 20.89 70.4 7.51 68.69 5.84C65.68 3.95 63.34 6.06 61.2 7.74C57.09 10.97 50.72 13.43 48.83 18.03C49.6 19.56 50.17 20.46 51.51 21.79Z" id="g1r1hNK9Ek"></path><path d="M46.46 159.87C53.91 164.47 63 168.74 72.35 172.28C112.71 187.57 164.11 187.54 204.72 173.32C217.7 168.78 245.2 155.25 253.03 144.64C251.41 137.15 243.65 141.9 227.34 144C202.41 147.21 188.07 146.89 163 144.6C150.07 143.43 145.63 143.78 138.98 135.06C138.62 135.46 135.71 138.61 135.35 139C129.89 143.99 123.32 143.87 115.63 144.54C88.74 146.87 65.34 147.31 38.78 142.22C33.38 141.19 28.64 138.53 25.58 142.63C26.84 145.83 41.27 156.66 46.46 159.87Z" id="a2vjzqNyZO"></path><path d="M105.19 40.13C109.47 48.04 113.15 56.84 117.03 65.31C118.68 69.11 131.84 99.55 133.49 103.36C134.99 106.67 137.86 115.23 139.19 116.87C143.56 104.16 166.32 51.8 172.65 40C179.2 27.79 183.81 25.53 188.61 18.37C171.25 15.37 157.99 12.63 138.98 12.71C128.74 12.76 96.99 15.04 89.72 19.33C95.98 27.23 98.9 28.46 105.19 40.13Z" id="fhy4dIdUw"></path><path d="M189.26 72.54C189.22 78.6 189.83 84.48 189.63 90.72C189.45 96.61 188.52 101.95 188.15 107.56C200.33 104.54 208.22 99.92 227.8 95.8C244.42 92.3 256.54 91.77 273.87 93.09C274.65 85.6 268.29 72.3 265.11 67.14C259.8 58.5 254.81 53.95 248.64 47.91C247.46 46.76 245.61 45.25 244.06 44.05C242.35 42.73 240.65 41.46 238.74 40.28C233.14 36.82 233.7 35.31 225.45 36.98C212.49 39.59 211.99 44.33 196.43 43.6C193.68 53.39 189.35 60.23 189.26 72.54Z" id="a2EJUFTw4B"></path><path d="M51.34 95.88C70.1 99.63 75.23 103.26 89.61 107.45C88.94 99.73 87.84 91.97 88.1 84.23C88.11 75.31 89.3 70.26 87.2 61.41C86.05 56.53 83.12 46.38 80.68 43.53C68.81 44.89 63.79 39.88 53.01 37.13C50.76 36.55 48.11 36.16 46.29 36.96C45.27 37.41 41.67 39.87 40.75 40.52C31.71 46.96 20.37 57.53 14.83 67.14C10.9 73.94 5.92 84.49 6.19 93.64C26.22 92.81 29.86 91.59 51.34 95.88Z" id="nnM4BRq2k"></path></defs><g><g><g><use xlink:href="#f1KMlTfzny" opacity="1" fill="#001551" fill-opacity="1"></use><g><use xlink:href="#f1KMlTfzny" opacity="1" fill-opacity="0" stroke="#000000" stroke-width="1" stroke-opacity="0"></use></g></g><g><use xlink:href="#a3xjKibEVG" opacity="1" fill="#fdfefd" fill-opacity="1"></use><g><use xlink:href="#a3xjKibEVG" opacity="1" fill-opacity="0" stroke="#000000" stroke-width="1" stroke-opacity="0"></use></g></g><g><use xlink:href="#g1r1hNK9Ek" opacity="1" fill="#fdfefd" fill-opacity="1"></use><g><use xlink:href="#g1r1hNK9Ek" opacity="1" fill-opacity="0" stroke="#000000" stroke-width="1" stroke-opacity="0"></use></g></g><g><use xlink:href="#a2vjzqNyZO" opacity="1" fill="#ff00ff" fill-opacity="1"></use><g><use xlink:href="#a2vjzqNyZO" opacity="1" fill-opacity="0" stroke="#000000" stroke-width="1" stroke-opacity="0"></use></g></g><g><use xlink:href="#fhy4dIdUw" opacity="1" fill="#ff00ff" fill-opacity="1"></use><g><use xlink:href="#fhy4dIdUw" opacity="1" fill-opacity="0" stroke="#000000" stroke-width="1" stroke-opacity="0"></use></g></g><g><use xlink:href="#a2EJUFTw4B" opacity="1" fill="#ff00ff" fill-opacity="1"></use><g><use xlink:href="#a2EJUFTw4B" opacity="1" fill-opacity="0" stroke="#000000" stroke-width="1" stroke-opacity="0"></use></g></g><g><use xlink:href="#nnM4BRq2k" opacity="1" fill="#ff00ff" fill-opacity="1"></use><g><use xlink:href="#nnM4BRq2k" opacity="1" fill-opacity="0" stroke="#000000" stroke-width="1" stroke-opacity="0"></use></g></g></g></g></svg>